<svg width="85" height="314" viewBox="0 0 85 314" fill="none" xmlns="http://www.w3.org/2000/svg">
<path d="M75.0988 302.49L75.1007 300.99H75.1007L75.0988 302.49ZM1.32527 301.339C0.738768 301.924 0.737604 302.874 1.32267 303.46L10.8569 313.018C11.442 313.605 12.3917 313.606 12.9782 313.021C13.5647 312.436 13.5659 311.486 12.9808 310.899L4.50595 302.404L13.0016 293.929C13.5881 293.344 13.5893 292.394 13.0042 291.807C12.4192 291.221 11.4694 291.22 10.8829 291.805L1.32527 301.339ZM0.960449 1.5V3H75.1086V1.5V0H0.960449V1.5ZM83.1086 9.5H81.6086V294.49H83.1086H84.6086V9.5H83.1086ZM75.0988 302.49L75.1007 300.99L2.38647 300.901L2.38463 302.401L2.38279 303.901L75.097 303.99L75.0988 302.49ZM83.1086 294.49H81.6086C81.6086 298.083 78.6936 300.995 75.1007 300.99L75.0988 302.49L75.097 303.99C80.3483 303.997 84.6086 299.741 84.6086 294.49H83.1086ZM75.1086 1.5V3C78.6985 3 81.6086 5.91015 81.6086 9.5H83.1086H84.6086C84.6086 4.25329 80.3553 0 75.1086 0V1.5Z" fill="url(#paint0_linear_16_3239)"/>
<path d="M0.511401 301.113C-0.0769355 301.696 -0.0810816 302.646 0.50214 303.234L10.0063 312.822C10.5895 313.41 11.5393 313.414 12.1276 312.831C12.716 312.248 12.7201 311.298 12.1369 310.71L3.68872 302.187L12.211 293.739C12.7993 293.156 12.8034 292.206 12.2202 291.618C11.637 291.03 10.6873 291.026 10.0989 291.609L0.511401 301.113ZM75.2759 302.5L75.2824 301L1.57397 300.678L1.56742 302.178L1.56087 303.678L75.2693 304L75.2759 302.5Z" fill="url(#paint1_linear_16_3239)"/>
<defs>
<linearGradient id="paint0_linear_16_3239" x1="0.960449" y1="1.8243" x2="86.2341" y2="1.5" gradientUnits="userSpaceOnUse">
<stop stop-color="#131313"/>
<stop offset="1" stop-color="#329998"/>
</linearGradient>
<linearGradient id="paint1_linear_16_3239" x1="71.2694" y1="302.339" x2="1.57395" y2="301.377" gradientUnits="userSpaceOnUse">
<stop stop-color="#2D8685"/>
<stop offset="1" stop-color="#329998"/>
</linearGradient>
</defs>
</svg>
